<?xml version="1.0" encoding="UTF-8" standalone="no"?>
<!-- Created with Inkscape (http://www.inkscape.org/) -->

<svg
   width="18.632301mm"
   height="17.003468mm"
   viewBox="0 0 18.632301 17.003468"
   version="1.1"
   id="svg1"
   xmlns="http://www.w3.org/2000/svg"
   xmlns:svg="http://www.w3.org/2000/svg">
  <defs
     id="defs1" />
  <g
     id="layer1"
     transform="translate(-8.4143698,-39.6048)">
    <g
       id="g3"
       transform="matrix(1,0,0,0.80434228,-37.906579,2.6261361)"
       style="stroke:#000000;stroke-width:0.278753;stroke-dasharray:none;stroke-opacity:1">
      <path
         style="fill:#a05a2c;stroke:#000000;stroke-width:0.278753;stroke-dasharray:none;stroke-opacity:1"
         d="m 54.884208,52.45263 c 0,0 -1.60522,9.346658 -3.522747,10.548682 -0.767983,0.481419 -1.535966,0.43397 -2.303949,1.444257 1.844499,-0.132274 2.350055,-0.496215 4.421046,0.50397 0,0 0.691605,1.99387 1.538549,2.024082 1.054279,0.03761 0.95466,-2.484832 2.089852,-2.376718 1.214853,-1.137802 4.989466,6.99e-4 5.350421,-0.382512 -0.06942,-0.254537 -2.52462,-1.584986 -2.970539,-2.730181 -2.167619,-5.566817 -4.602633,-9.03158 -4.602633,-9.03158 z"
         id="path2" />
      <path
         d="m 56.277701,46.113235 c -1.83069,0.0023 -3.553684,0.83542 -4.651692,2.249081 -0.193428,-0.02462 -0.388256,-0.03707 -0.583294,-0.03727 -2.530748,9.6e-5 -4.582306,2.020361 -4.58239,4.512497 -1.84e-4,2.49232 2.051452,4.512876 4.58239,4.512972 0.862518,-0.0041 1.706352,-0.247858 2.434464,-0.703195 0.857136,0.458736 1.820407,0.701266 2.800522,0.705106 0.576222,-0.0024 1.14888,-0.08748 1.699238,-0.252233 0.702826,0.454683 1.509985,0.696584 2.333621,0.699375 2.487095,-3.9e-5 4.503303,-2.134785 4.503314,-4.768074 -3.37e-4,-2.396464 -1.680656,-4.420349 -3.925352,-4.727947 -1.1019,-1.380515 -2.805121,-2.189613 -4.610821,-2.190322 z"
         style="fill:#008000;stroke:#000000;stroke-width:0.278753;stroke-dasharray:none;stroke-opacity:1"
         id="path3" />
    </g>
  </g>
</svg>
